<svg xmlns="http://www.w3.org/2000/svg" viewBox="0 0 64 64" role="img" aria-label="NayePankh Bulbul">
  <defs>
    <linearGradient id="np-bg" x1="10" y1="6" x2="54" y2="58" gradientUnits="userSpaceOnUse">
      <stop offset="0" stop-color="#004ac6"/>
      <stop offset="1" stop-color="#2563eb"/>
    </linearGradient>
    <linearGradient id="np-body" x1="20" y1="24" x2="48" y2="52" gradientUnits="userSpaceOnUse">
      <stop offset="0" stop-color="#ffffff"/>
      <stop offset="1" stop-color="#dbe1ff"/>
    </linearGradient>
  </defs>
  <rect width="64" height="64" rx="16" fill="url(#np-bg)"/>
  <circle cx="49" cy="15" r="2.8" fill="#ffb596" opacity="0.95"/>
  <path d="M17 39c1.5-9 8.5-15.5 17-16.5 5.5-.7 10.5 2 13.5 6.5 1.5 2.2 2 4.8 1.2 7.5-1.5 6-7 11-13.5 12.5-7.5 1.7-15-1-19.2-7.5-.8-1.2-1.2-2.2 1-2z" fill="url(#np-body)"/>
  <path d="M35 18l1-6.5 2.2 4.8 2.8-4.2 1.4 6.2-4.2 1.8z" fill="#eef2ff"/>
  <path d="M28 31c5 3 11 3.2 15.5.8" stroke="#b4c5ff" stroke-width="4" stroke-linecap="round" fill="none"/>
  <path d="M15 37l-6.5 2.5 2.8-5.2 3.7 2.7z" fill="#1d4ed8"/>
  <path d="M46 36c2.8 1.8 5.8 1.5 7.8-.8 1.5-1.8 1.8-3.8 1-6.2-.9-2.8-3.5-4.5-6.5-4.3-2.2.2-4 1.2-5 2.8 2.5 1.5 4.2 4 4.2 6.8 0 1-.4 1.7-.5 1.7z" fill="#c7d7fe" opacity="0.9"/>
  <circle cx="38.5" cy="27.5" r="1.7" fill="#131b2e"/>
  <circle cx="39.1" cy="26.9" r=".55" fill="#ffffff"/>
</svg>
